<svg width="16" height="16" viewBox="0 0 16 16" fill="none" xmlns="http://www.w3.org/2000/svg">
<path d="M10.79 8.24C11.546 7.652 12.056 6.896 12.32 5.972C12.584 5.048 12.56 4.136 12.248 3.236C11.936 2.324 11.39 1.592 10.61 1.04C9.83 0.487999 8.96 0.211999 8 0.211999C7.04 0.211999 6.17 0.487999 5.39 1.04C4.61 1.592 4.064 2.324 3.752 3.236C3.44 4.136 3.416 5.048 3.68 5.972C3.944 6.896 4.454 7.652 5.21 8.24C3.926 8.756 2.864 9.566 2.024 10.67C1.196 11.762 0.704 12.992 0.548 14.36C0.524 14.564 0.578 14.75 0.71 14.918C0.842 15.086 1.01 15.182 1.214 15.206C1.418 15.23 1.604 15.176 1.772 15.044C1.94 14.912 2.036 14.744 2.06 14.54C2.168 13.544 2.498 12.638 3.05 11.822C3.614 11.006 4.328 10.364 5.192 9.896C6.068 9.428 7.01 9.194 8.018 9.194C9.026 9.194 9.962 9.428 10.826 9.896C11.702 10.364 12.416 11.006 12.968 11.822C13.532 12.638 13.868 13.544 13.976 14.54C14 14.732 14.084 14.888 14.228 15.008C14.372 15.14 14.54 15.206 14.732 15.206H14.804C15.008 15.182 15.176 15.086 15.308 14.918C15.44 14.762 15.494 14.582 15.47 14.378C15.314 12.998 14.816 11.762 13.976 10.67C13.136 9.566 12.074 8.756 10.79 8.24ZM8 7.7C7.46 7.7 6.956 7.568 6.488 7.304C6.032 7.028 5.666 6.662 5.39 6.206C5.126 5.738 4.994 5.234 4.994 4.694C4.994 4.154 5.126 3.656 5.39 3.2C5.666 2.732 6.032 2.366 6.488 2.102C6.956 1.826 7.46 1.688 8 1.688C8.54 1.688 9.038 1.826 9.494 2.102C9.962 2.366 10.328 2.732 10.592 3.2C10.868 3.656 11.006 4.154 11.006 4.694C11.006 5.234 10.868 5.738 10.592 6.206C10.328 6.662 9.962 7.028 9.494 7.304C9.038 7.568 8.54 7.7 8 7.7Z" fill="#D9D9D9"/>
</svg>
