<svg width="16" height="16" viewBox="0 0 16 16" fill="none" xmlns="http://www.w3.org/2000/svg">
<path d="M8.45 8.456L6.722 10.166C6.578 10.31 6.506 10.49 6.506 10.706C6.506 10.91 6.578 11.084 6.722 11.228C6.866 11.372 7.04 11.444 7.244 11.444C7.46 11.444 7.64 11.372 7.784 11.228L10.79 8.24C10.85 8.168 10.898 8.084 10.934 7.988C11.018 7.796 11.018 7.604 10.934 7.412C10.898 7.316 10.85 7.232 10.79 7.16L7.784 4.172C7.688 4.052 7.574 3.968 7.442 3.92C7.31 3.872 7.172 3.866 7.028 3.902C6.884 3.938 6.758 4.01 6.65 4.118C6.554 4.214 6.488 4.334 6.452 4.478C6.416 4.622 6.422 4.76 6.47 4.892C6.518 5.024 6.602 5.138 6.722 5.234L8.45 6.944H1.25C1.046 6.944 0.866 7.022 0.71 7.178C0.566 7.322 0.494 7.496 0.494 7.7C0.494 7.904 0.566 8.084 0.71 8.24C0.866 8.384 1.046 8.456 1.25 8.456H8.45ZM8 0.194C7.052 0.194 6.14 0.362 5.264 0.698C4.4 1.034 3.62 1.52 2.924 2.156C2.228 2.78 1.67 3.518 1.25 4.37C1.178 4.55 1.178 4.73 1.25 4.91C1.322 5.09 1.442 5.228 1.61 5.324C1.79 5.408 1.97 5.426 2.15 5.378C2.342 5.318 2.492 5.204 2.6 5.036C3.032 4.172 3.632 3.458 4.4 2.894C5.168 2.318 6.02 1.952 6.956 1.796C7.904 1.628 8.84 1.694 9.764 1.994C10.7 2.282 11.504 2.762 12.176 3.434C12.86 4.106 13.352 4.898 13.652 5.81C13.964 6.71 14.042 7.64 13.886 8.6C13.742 9.56 13.388 10.43 12.824 11.21C12.272 11.978 11.57 12.584 10.718 13.028C9.878 13.472 8.972 13.694 8 13.694C6.86 13.694 5.804 13.394 4.832 12.794C3.872 12.194 3.14 11.384 2.636 10.364C2.528 10.196 2.378 10.088 2.186 10.04C2.006 9.98 1.826 9.998 1.646 10.094C1.478 10.178 1.358 10.31 1.286 10.49C1.214 10.67 1.214 10.85 1.286 11.03C1.826 12.122 2.588 13.028 3.572 13.748C4.52 14.444 5.576 14.894 6.74 15.098C7.94 15.302 9.122 15.218 10.286 14.846C11.45 14.486 12.458 13.874 13.31 13.01C14.15 12.182 14.756 11.204 15.128 10.076C15.512 8.924 15.608 7.748 15.416 6.548C15.236 5.348 14.786 4.256 14.066 3.272C13.37 2.312 12.494 1.562 11.438 1.022C10.37 0.47 9.224 0.194 8 0.194Z" fill="#D9D9D9"/>
</svg>
