<svg aria-hidden="true" style="position: absolute; width: 0; height: 0; overflow: hidden;" version="1.1"
     xmlns="http://www.w3.org/2000/svg" xmlns:xlink="http://www.w3.org/1999/xlink">
    <defs>
        <symbol id="instagram" xmlns="http://www.w3.org/2000/svg" viewBox="0 0 32 32">
            <path d="M16 2.881c4.275 0 4.781 0.019 6.462 0.094 1.563 0.069 2.406 0.331 2.969 0.55 0.744 0.288 1.281 0.638 1.837 1.194 0.563 0.563 0.906 1.094 1.2 1.838 0.219 0.563 0.481 1.412 0.55 2.969 0.075 1.688 0.094 2.194 0.094 6.463s-0.019 4.781-0.094 6.463c-0.069 1.563-0.331 2.406-0.55 2.969-0.288 0.744-0.637 1.281-1.194 1.837-0.563 0.563-1.094 0.906-1.837 1.2-0.563 0.219-1.413 0.481-2.969 0.55-1.688 0.075-2.194 0.094-6.463 0.094s-4.781-0.019-6.463-0.094c-1.563-0.069-2.406-0.331-2.969-0.55-0.744-0.288-1.281-0.637-1.838-1.194-0.563-0.563-0.906-1.094-1.2-1.837-0.219-0.563-0.481-1.413-0.55-2.969-0.075-1.688-0.094-2.194-0.094-6.463s0.019-4.781 0.094-6.463c0.069-1.563 0.331-2.406 0.55-2.969 0.288-0.744 0.638-1.281 1.194-1.838 0.563-0.563 1.094-0.906 1.838-1.2 0.563-0.219 1.412-0.481 2.969-0.55 1.681-0.075 2.188-0.094 6.463-0.094zM16 0c-4.344 0-4.887 0.019-6.594 0.094-1.7 0.075-2.869 0.35-3.881 0.744-1.056 0.412-1.95 0.956-2.837 1.85-0.894 0.888-1.438 1.781-1.85 2.831-0.394 1.019-0.669 2.181-0.744 3.881-0.075 1.713-0.094 2.256-0.094 6.6s0.019 4.887 0.094 6.594c0.075 1.7 0.35 2.869 0.744 3.881 0.413 1.056 0.956 1.95 1.85 2.837 0.887 0.887 1.781 1.438 2.831 1.844 1.019 0.394 2.181 0.669 3.881 0.744 1.706 0.075 2.25 0.094 6.594 0.094s4.888-0.019 6.594-0.094c1.7-0.075 2.869-0.35 3.881-0.744 1.050-0.406 1.944-0.956 2.831-1.844s1.438-1.781 1.844-2.831c0.394-1.019 0.669-2.181 0.744-3.881 0.075-1.706 0.094-2.25 0.094-6.594s-0.019-4.887-0.094-6.594c-0.075-1.7-0.35-2.869-0.744-3.881-0.394-1.063-0.938-1.956-1.831-2.844-0.887-0.887-1.781-1.438-2.831-1.844-1.019-0.394-2.181-0.669-3.881-0.744-1.712-0.081-2.256-0.1-6.6-0.1v0z"/>
                <path d="M16 7.781c-4.537 0-8.219 3.681-8.219 8.219s3.681 8.219 8.219 8.219 8.219-3.681 8.219-8.219c0-4.537-3.681-8.219-8.219-8.219zM16 21.331c-2.944 0-5.331-2.387-5.331-5.331s2.387-5.331 5.331-5.331c2.944 0 5.331 2.387 5.331 5.331s-2.387 5.331-5.331 5.331z"/>
                <path d="M26.462 7.456c0 1.060-0.859 1.919-1.919 1.919s-1.919-0.859-1.919-1.919c0-1.060 0.859-1.919 1.919-1.919s1.919 0.859 1.919 1.919z"/>
        </symbol>
        <symbol id="twitter" xmlns="http://www.w3.org/2000/svg" viewBox="0 0 22.171 22.171">
            <path class="a" d="M-114.7,177.3a11.086,11.086,0,0,0-11.086,11.086h0A11.086,11.086,0,0,0-114.7,199.467a11.085,11.085,0,0,0,11.085-11.085h0A11.085,11.085,0,0,0-114.7,177.3Zm4.7,8.676a6.855,6.855,0,0,1-6.888,7.21,6.857,6.857,0,0,1-3.715-1.089,4.872,4.872,0,0,0,3.588-1,2.424,2.424,0,0,1-2.264-1.683,2.418,2.418,0,0,0,1.094-.041,2.426,2.426,0,0,1-1.944-2.407,2.421,2.421,0,0,0,1.1.3,2.427,2.427,0,0,1-.75-3.236,6.877,6.877,0,0,0,4.995,2.533,2.426,2.426,0,0,1,2.361-2.976,2.419,2.419,0,0,1,1.769.765,4.86,4.86,0,0,0,1.539-.588,2.431,2.431,0,0,1-1.065,1.341,4.852,4.852,0,0,0,1.392-.382A4.912,4.912,0,0,1-110,185.972Z" transform="translate(125.781 -177.296)"/>
        </symbol>
        <symbol id="facebook" xmlns="http://www.w3.org/2000/svg" viewBox="0 0 32 32">
            <path d="M19 6h5v-6h-5c-3.86 0-7 3.14-7 7v3h-4v6h4v16h6v-16h5l1-6h-6v-3c0-0.542 0.458-1 1-1z"/>
        </symbol>
        <symbol id="youtube" xmlns="http://www.w3.org/2000/svg"  viewBox="0 0 21.89 21.9">
            <g transform="translate(0)"><path class="a" d="M5.324.013a10.654,10.654,0,0,1,5.82,1.272A10.811,10.811,0,0,1,16.78,9.039c.079.416.116.842.173,1.262v1.284a1.359,1.359,0,0,0-.037.183,10.3,10.3,0,0,1-1.26,4.329,10.8,10.8,0,0,1-7.763,5.62c-.412.079-.829.114-1.245.17H5.366L4.9,21.836a10.8,10.8,0,0,1-6.084-2.65,10.77,10.77,0,0,1-3.637-6.655c-.046-.3-.079-.6-.118-.9V10.259a1.171,1.171,0,0,0,.035-.141A10.307,10.307,0,0,1-3.65,5.807,10.8,10.8,0,0,1,4.1.171,10.025,10.025,0,0,1,5.324.013M6.451,15.73c1.509-.071,3.018-.118,4.523-.222A1.648,1.648,0,0,0,12.6,14.023a19.642,19.642,0,0,0,.224-2.29,15.983,15.983,0,0,0-.237-3.957,1.589,1.589,0,0,0-1.407-1.359c-.9-.116-1.812-.181-2.723-.212a60.642,60.642,0,0,0-7.087.121A1.887,1.887,0,0,0-.641,8.1a20.814,20.814,0,0,0,.006,5.705A2.064,2.064,0,0,0-.2,14.9a2.041,2.041,0,0,0,1.567.655c1.542.085,4.932.181,5.08.175" transform="translate(4.937 0.012)"/></g><g transform="translate(9.587 8.91)"><path class="a" d="M0,2.122v-4.09C1.178-1.288,2.338-.619,3.542.077L0,2.122" transform="translate(0 1.968)"/></g>
        </symbol>
        <symbol id="map" xmlns="http://www.w3.org/2000/svg" viewBox="0 0 18 18">
            <path class="a" d="M20.5,3l-.16.03L15,5.1,9,3,3.36,4.9A.5.5,0,0,0,3,5.38V20.5a.5.5,0,0,0,.5.5l.16-.03L9,18.9,15,21l5.64-1.9a.5.5,0,0,0,.36-.48V3.5A.5.5,0,0,0,20.5,3ZM10,5.47l4,1.4V18.53l-4-1.4ZM5,6.46,8,5.45v11.7L5,18.31ZM19,17.54l-3,1.01V6.86L19,5.7Z" transform="translate(-3 -3)"/>
        </symbol>
        <symbol id="vimeo" xmlns="http://www.w3.org/2000/svg" viewBox="0 0 22.17 22.17">
            <path class="a" d="M-117.1,218.642h0a11.085,11.085,0,0,0-11.085,11.085h0A11.085,11.085,0,0,0-117.1,240.812h0a11.085,11.085,0,0,0,11.085-11.085h0A11.085,11.085,0,0,0-117.1,218.642Zm3.716,13.191q-2.564,3.334-4.339,3.334-1.1,0-1.859-2.03l-1.015-3.723q-.564-2.03-1.212-2.031a3.894,3.894,0,0,0-.986.593l-.592-.762q.931-.819,1.835-1.637a4.164,4.164,0,0,1,1.863-1.129q1.468-.141,1.807,2.008.366,2.317.508,2.882.422,1.924.931,1.922.394,0,1.185-1.247a4.911,4.911,0,0,0,.846-1.9q.113-1.077-.846-1.078a2.356,2.356,0,0,0-.931.206q.927-3.037,3.541-2.952,1.938.058,1.827,2.515Q-110.908,228.641-113.388,231.833Z" transform="translate(128.19 -218.642)"/>
        </symbol>
        <symbol id="vimeo" xmlns="http://www.w3.org/2000/svg" viewBox="0 0 22.17 22.17">
            <path class="a" d="M-117.1,218.642h0a11.085,11.085,0,0,0-11.085,11.085h0A11.085,11.085,0,0,0-117.1,240.812h0a11.085,11.085,0,0,0,11.085-11.085h0A11.085,11.085,0,0,0-117.1,218.642Zm3.716,13.191q-2.564,3.334-4.339,3.334-1.1,0-1.859-2.03l-1.015-3.723q-.564-2.03-1.212-2.031a3.894,3.894,0,0,0-.986.593l-.592-.762q.931-.819,1.835-1.637a4.164,4.164,0,0,1,1.863-1.129q1.468-.141,1.807,2.008.366,2.317.508,2.882.422,1.924.931,1.922.394,0,1.185-1.247a4.911,4.911,0,0,0,.846-1.9q.113-1.077-.846-1.078a2.356,2.356,0,0,0-.931.206q.927-3.037,3.541-2.952,1.938.058,1.827,2.515Q-110.908,228.641-113.388,231.833Z" transform="translate(128.19 -218.642)"/>
        </symbol>
        <symbol id="linkedin" xmlns="http://www.w3.org/2000/svg" viewBox="0 0 22.17 22.17">
            <path class="a" d="M-158.428,171.129a11.085,11.085,0,0,0-11.085,11.085h0A11.085,11.085,0,0,0-158.428,193.3a11.085,11.085,0,0,0,11.085-11.085h0A11.085,11.085,0,0,0-158.428,171.129Zm-2.732,16.025h-2.294v-7.411h2.294Zm-1.158-8.382a1.362,1.362,0,0,1-1.357-1.368,1.362,1.362,0,0,1,1.357-1.367,1.362,1.362,0,0,1,1.357,1.367A1.363,1.363,0,0,1-162.318,178.772Zm9.755,8.382h-2.283v-3.89c0-1.067-.405-1.662-1.249-1.662-.919,0-1.4.621-1.4,1.662v3.89h-2.2v-7.411h2.2v1a2.583,2.583,0,0,1,2.233-1.224c1.572,0,2.7.96,2.7,2.945Z" transform="translate(169.513 -171.129)"/>
        </symbol>
        <symbol id="eye" xmlns="http://www.w3.org/2000/svg" viewBox="0 0 576 512">
            <path d="M572.52 241.4C518.29 135.59 410.93 64 288 64S57.68 135.64 3.48 241.41a32.35 32.35 0 0 0 0 29.19C57.71 376.41 165.07 448 288 448s230.32-71.64 284.52-177.41a32.35 32.35 0 0 0 0-29.19zM288 400a144 144 0 1 1 144-144 143.93 143.93 0 0 1-144 144zm0-240a95.31 95.31 0 0 0-25.31 3.79 47.85 47.85 0 0 1-66.9 66.9A95.78 95.78 0 1 0 288 160z" />
        </symbol>
        <symbol id="eye-slash" xmlns="http://www.w3.org/2000/svg" viewBox="0 0 640 512">
            <path d="M320 400c-75.85 0-137.25-58.71-142.9-133.11L72.2 185.82c-13.79 17.3-26.48 35.59-36.72 55.59a32.35 32.35 0 0 0 0 29.19C89.71 376.41 197.07 448 320 448c26.91 0 52.87-4 77.89-10.46L346 397.39a144.13 144.13 0 0 1-26 2.61zm313.82 58.1l-110.55-85.44a331.25 331.25 0 0 0 81.25-102.07 32.35 32.35 0 0 0 0-29.19C550.29 135.59 442.93 64 320 64a308.15 308.15 0 0 0-147.32 37.7L45.46 3.37A16 16 0 0 0 23 6.18L3.37 31.45A16 16 0 0 0 6.18 53.9l588.36 454.73a16 16 0 0 0 22.46-2.81l19.64-25.27a16 16 0 0 0-2.82-22.45zm-183.72-142l-39.3-30.38A94.75 94.75 0 0 0 416 256a94.76 94.76 0 0 0-121.31-92.21A47.65 47.65 0 0 1 304 192a46.64 46.64 0 0 1-1.54 10l-73.61-56.89A142.31 142.31 0 0 1 320 112a143.92 143.92 0 0 1 144 144c0 21.63-5.29 41.79-13.9 60.11z"/>
        </symbol>
    </defs>
</svg>
