<svg aria-hidden="true" style="position: absolute; width: 0; height: 0; overflow: hidden;" version="1.1"
     xmlns="http://www.w3.org/2000/svg" xmlns:xlink="http://www.w3.org/1999/xlink">
    <defs>
        <symbol id="instagram" xmlns="http://www.w3.org/2000/svg" viewBox="0 0 32 32">
            <path d="M16 2.881c4.275 0 4.781 0.019 6.462 0.094 1.563 0.069 2.406 0.331 2.969 0.55 0.744 0.288 1.281 0.638 1.837 1.194 0.563 0.563 0.906 1.094 1.2 1.838 0.219 0.563 0.481 1.412 0.55 2.969 0.075 1.688 0.094 2.194 0.094 6.463s-0.019 4.781-0.094 6.463c-0.069 1.563-0.331 2.406-0.55 2.969-0.288 0.744-0.637 1.281-1.194 1.837-0.563 0.563-1.094 0.906-1.837 1.2-0.563 0.219-1.413 0.481-2.969 0.55-1.688 0.075-2.194 0.094-6.463 0.094s-4.781-0.019-6.463-0.094c-1.563-0.069-2.406-0.331-2.969-0.55-0.744-0.288-1.281-0.637-1.838-1.194-0.563-0.563-0.906-1.094-1.2-1.837-0.219-0.563-0.481-1.413-0.55-2.969-0.075-1.688-0.094-2.194-0.094-6.463s0.019-4.781 0.094-6.463c0.069-1.563 0.331-2.406 0.55-2.969 0.288-0.744 0.638-1.281 1.194-1.838 0.563-0.563 1.094-0.906 1.838-1.2 0.563-0.219 1.412-0.481 2.969-0.55 1.681-0.075 2.188-0.094 6.463-0.094zM16 0c-4.344 0-4.887 0.019-6.594 0.094-1.7 0.075-2.869 0.35-3.881 0.744-1.056 0.412-1.95 0.956-2.837 1.85-0.894 0.888-1.438 1.781-1.85 2.831-0.394 1.019-0.669 2.181-0.744 3.881-0.075 1.713-0.094 2.256-0.094 6.6s0.019 4.887 0.094 6.594c0.075 1.7 0.35 2.869 0.744 3.881 0.413 1.056 0.956 1.95 1.85 2.837 0.887 0.887 1.781 1.438 2.831 1.844 1.019 0.394 2.181 0.669 3.881 0.744 1.706 0.075 2.25 0.094 6.594 0.094s4.888-0.019 6.594-0.094c1.7-0.075 2.869-0.35 3.881-0.744 1.050-0.406 1.944-0.956 2.831-1.844s1.438-1.781 1.844-2.831c0.394-1.019 0.669-2.181 0.744-3.881 0.075-1.706 0.094-2.25 0.094-6.594s-0.019-4.887-0.094-6.594c-0.075-1.7-0.35-2.869-0.744-3.881-0.394-1.063-0.938-1.956-1.831-2.844-0.887-0.887-1.781-1.438-2.831-1.844-1.019-0.394-2.181-0.669-3.881-0.744-1.712-0.081-2.256-0.1-6.6-0.1v0z"/>
                <path d="M16 7.781c-4.537 0-8.219 3.681-8.219 8.219s3.681 8.219 8.219 8.219 8.219-3.681 8.219-8.219c0-4.537-3.681-8.219-8.219-8.219zM16 21.331c-2.944 0-5.331-2.387-5.331-5.331s2.387-5.331 5.331-5.331c2.944 0 5.331 2.387 5.331 5.331s-2.387 5.331-5.331 5.331z"/>
                <path d="M26.462 7.456c0 1.060-0.859 1.919-1.919 1.919s-1.919-0.859-1.919-1.919c0-1.060 0.859-1.919 1.919-1.919s1.919 0.859 1.919 1.919z"/>
        </symbol>
        <symbol id="twitter" xmlns="http://www.w3.org/2000/svg" viewBox="0 0 22.171 22.171">
            <path class="a" d="M-114.7,177.3a11.086,11.086,0,0,0-11.086,11.086h0A11.086,11.086,0,0,0-114.7,199.467a11.085,11.085,0,0,0,11.085-11.085h0A11.085,11.085,0,0,0-114.7,177.3Zm4.7,8.676a6.855,6.855,0,0,1-6.888,7.21,6.857,6.857,0,0,1-3.715-1.089,4.872,4.872,0,0,0,3.588-1,2.424,2.424,0,0,1-2.264-1.683,2.418,2.418,0,0,0,1.094-.041,2.426,2.426,0,0,1-1.944-2.407,2.421,2.421,0,0,0,1.1.3,2.427,2.427,0,0,1-.75-3.236,6.877,6.877,0,0,0,4.995,2.533,2.426,2.426,0,0,1,2.361-2.976,2.419,2.419,0,0,1,1.769.765,4.86,4.86,0,0,0,1.539-.588,2.431,2.431,0,0,1-1.065,1.341,4.852,4.852,0,0,0,1.392-.382A4.912,4.912,0,0,1-110,185.972Z" transform="translate(125.781 -177.296)"/>
        </symbol>
        <symbol id="facebook" xmlns="http://www.w3.org/2000/svg" viewBox="0 0 32 32">
            <path d="M19 6h5v-6h-5c-3.86 0-7 3.14-7 7v3h-4v6h4v16h6v-16h5l1-6h-6v-3c0-0.542 0.458-1 1-1z"/>
        </symbol>
        <symbol id="youtube" xmlns="http://www.w3.org/2000/svg"  viewBox="0 0 21.89 21.9">
            <g transform="translate(0)"><path class="a" d="M5.324.013a10.654,10.654,0,0,1,5.82,1.272A10.811,10.811,0,0,1,16.78,9.039c.079.416.116.842.173,1.262v1.284a1.359,1.359,0,0,0-.037.183,10.3,10.3,0,0,1-1.26,4.329,10.8,10.8,0,0,1-7.763,5.62c-.412.079-.829.114-1.245.17H5.366L4.9,21.836a10.8,10.8,0,0,1-6.084-2.65,10.77,10.77,0,0,1-3.637-6.655c-.046-.3-.079-.6-.118-.9V10.259a1.171,1.171,0,0,0,.035-.141A10.307,10.307,0,0,1-3.65,5.807,10.8,10.8,0,0,1,4.1.171,10.025,10.025,0,0,1,5.324.013M6.451,15.73c1.509-.071,3.018-.118,4.523-.222A1.648,1.648,0,0,0,12.6,14.023a19.642,19.642,0,0,0,.224-2.29,15.983,15.983,0,0,0-.237-3.957,1.589,1.589,0,0,0-1.407-1.359c-.9-.116-1.812-.181-2.723-.212a60.642,60.642,0,0,0-7.087.121A1.887,1.887,0,0,0-.641,8.1a20.814,20.814,0,0,0,.006,5.705A2.064,2.064,0,0,0-.2,14.9a2.041,2.041,0,0,0,1.567.655c1.542.085,4.932.181,5.08.175" transform="translate(4.937 0.012)"/></g><g transform="translate(9.587 8.91)"><path class="a" d="M0,2.122v-4.09C1.178-1.288,2.338-.619,3.542.077L0,2.122" transform="translate(0 1.968)"/></g>
        </symbol>
        <symbol id="map" xmlns="http://www.w3.org/2000/svg" viewBox="0 0 18 18">
            <path class="a" d="M20.5,3l-.16.03L15,5.1,9,3,3.36,4.9A.5.5,0,0,0,3,5.38V20.5a.5.5,0,0,0,.5.5l.16-.03L9,18.9,15,21l5.64-1.9a.5.5,0,0,0,.36-.48V3.5A.5.5,0,0,0,20.5,3ZM10,5.47l4,1.4V18.53l-4-1.4ZM5,6.46,8,5.45v11.7L5,18.31ZM19,17.54l-3,1.01V6.86L19,5.7Z" transform="translate(-3 -3)"/>
        </symbol>
        <symbol id="vimeo" xmlns="http://www.w3.org/2000/svg" viewBox="0 0 22.17 22.17">
            <path class="a" d="M-117.1,218.642h0a11.085,11.085,0,0,0-11.085,11.085h0A11.085,11.085,0,0,0-117.1,240.812h0a11.085,11.085,0,0,0,11.085-11.085h0A11.085,11.085,0,0,0-117.1,218.642Zm3.716,13.191q-2.564,3.334-4.339,3.334-1.1,0-1.859-2.03l-1.015-3.723q-.564-2.03-1.212-2.031a3.894,3.894,0,0,0-.986.593l-.592-.762q.931-.819,1.835-1.637a4.164,4.164,0,0,1,1.863-1.129q1.468-.141,1.807,2.008.366,2.317.508,2.882.422,1.924.931,1.922.394,0,1.185-1.247a4.911,4.911,0,0,0,.846-1.9q.113-1.077-.846-1.078a2.356,2.356,0,0,0-.931.206q.927-3.037,3.541-2.952,1.938.058,1.827,2.515Q-110.908,228.641-113.388,231.833Z" transform="translate(128.19 -218.642)"/>
        </symbol>
        <symbol id="vimeo" xmlns="http://www.w3.org/2000/svg" viewBox="0 0 22.17 22.17">
            <path class="a" d="M-117.1,218.642h0a11.085,11.085,0,0,0-11.085,11.085h0A11.085,11.085,0,0,0-117.1,240.812h0a11.085,11.085,0,0,0,11.085-11.085h0A11.085,11.085,0,0,0-117.1,218.642Zm3.716,13.191q-2.564,3.334-4.339,3.334-1.1,0-1.859-2.03l-1.015-3.723q-.564-2.03-1.212-2.031a3.894,3.894,0,0,0-.986.593l-.592-.762q.931-.819,1.835-1.637a4.164,4.164,0,0,1,1.863-1.129q1.468-.141,1.807,2.008.366,2.317.508,2.882.422,1.924.931,1.922.394,0,1.185-1.247a4.911,4.911,0,0,0,.846-1.9q.113-1.077-.846-1.078a2.356,2.356,0,0,0-.931.206q.927-3.037,3.541-2.952,1.938.058,1.827,2.515Q-110.908,228.641-113.388,231.833Z" transform="translate(128.19 -218.642)"/>
        </symbol>
        <symbol id="linkedin" xmlns="http://www.w3.org/2000/svg" viewBox="0 0 22.17 22.17">
            <path class="a" d="M-158.428,171.129a11.085,11.085,0,0,0-11.085,11.085h0A11.085,11.085,0,0,0-158.428,193.3a11.085,11.085,0,0,0,11.085-11.085h0A11.085,11.085,0,0,0-158.428,171.129Zm-2.732,16.025h-2.294v-7.411h2.294Zm-1.158-8.382a1.362,1.362,0,0,1-1.357-1.368,1.362,1.362,0,0,1,1.357-1.367,1.362,1.362,0,0,1,1.357,1.367A1.363,1.363,0,0,1-162.318,178.772Zm9.755,8.382h-2.283v-3.89c0-1.067-.405-1.662-1.249-1.662-.919,0-1.4.621-1.4,1.662v3.89h-2.2v-7.411h2.2v1a2.583,2.583,0,0,1,2.233-1.224c1.572,0,2.7.96,2.7,2.945Z" transform="translate(169.513 -171.129)"/>
        </symbol>
        <symbol id="eye" xmlns="http://www.w3.org/2000/svg" viewBox="0 0 576 512">
            <path d="M572.52 241.4C518.29 135.59 410.93 64 288 64S57.68 135.64 3.48 241.41a32.35 32.35 0 0 0 0 29.19C57.71 376.41 165.07 448 288 448s230.32-71.64 284.52-177.41a32.35 32.35 0 0 0 0-29.19zM288 400a144 144 0 1 1 144-144 143.93 143.93 0 0 1-144 144zm0-240a95.31 95.31 0 0 0-25.31 3.79 47.85 47.85 0 0 1-66.9 66.9A95.78 95.78 0 1 0 288 160z" />
        </symbol>
        <symbol id="eye-slash" xmlns="http://www.w3.org/2000/svg" viewBox="0 0 640 512">
            <path d="M320 400c-75.85 0-137.25-58.71-142.9-133.11L72.2 185.82c-13.79 17.3-26.48 35.59-36.72 55.59a32.35 32.35 0 0 0 0 29.19C89.71 376.41 197.07 448 320 448c26.91 0 52.87-4 77.89-10.46L346 397.39a144.13 144.13 0 0 1-26 2.61zm313.82 58.1l-110.55-85.44a331.25 331.25 0 0 0 81.25-102.07 32.35 32.35 0 0 0 0-29.19C550.29 135.59 442.93 64 320 64a308.15 308.15 0 0 0-147.32 37.7L45.46 3.37A16 16 0 0 0 23 6.18L3.37 31.45A16 16 0 0 0 6.18 53.9l588.36 454.73a16 16 0 0 0 22.46-2.81l19.64-25.27a16 16 0 0 0-2.82-22.45zm-183.72-142l-39.3-30.38A94.75 94.75 0 0 0 416 256a94.76 94.76 0 0 0-121.31-92.21A47.65 47.65 0 0 1 304 192a46.64 46.64 0 0 1-1.54 10l-73.61-56.89A142.31 142.31 0 0 1 320 112a143.92 143.92 0 0 1 144 144c0 21.63-5.29 41.79-13.9 60.11z"/>
        </symbol>
        <symbol id="account" xmlns="http://www.w3.org/2000/svg" viewBox="0 0 16 16">
            <path d="M10.79 8.24C11.546 7.652 12.056 6.896 12.32 5.972C12.584 5.048 12.56 4.136 12.248 3.236C11.936 2.324 11.39 1.592 10.61 1.04C9.83 0.487999 8.96 0.211999 8 0.211999C7.04 0.211999 6.17 0.487999 5.39 1.04C4.61 1.592 4.064 2.324 3.752 3.236C3.44 4.136 3.416 5.048 3.68 5.972C3.944 6.896 4.454 7.652 5.21 8.24C3.926 8.756 2.864 9.566 2.024 10.67C1.196 11.762 0.704 12.992 0.548 14.36C0.524 14.564 0.578 14.75 0.71 14.918C0.842 15.086 1.01 15.182 1.214 15.206C1.418 15.23 1.604 15.176 1.772 15.044C1.94 14.912 2.036 14.744 2.06 14.54C2.168 13.544 2.498 12.638 3.05 11.822C3.614 11.006 4.328 10.364 5.192 9.896C6.068 9.428 7.01 9.194 8.018 9.194C9.026 9.194 9.962 9.428 10.826 9.896C11.702 10.364 12.416 11.006 12.968 11.822C13.532 12.638 13.868 13.544 13.976 14.54C14 14.732 14.084 14.888 14.228 15.008C14.372 15.14 14.54 15.206 14.732 15.206H14.804C15.008 15.182 15.176 15.086 15.308 14.918C15.44 14.762 15.494 14.582 15.47 14.378C15.314 12.998 14.816 11.762 13.976 10.67C13.136 9.566 12.074 8.756 10.79 8.24ZM8 7.7C7.46 7.7 6.956 7.568 6.488 7.304C6.032 7.028 5.666 6.662 5.39 6.206C5.126 5.738 4.994 5.234 4.994 4.694C4.994 4.154 5.126 3.656 5.39 3.2C5.666 2.732 6.032 2.366 6.488 2.102C6.956 1.826 7.46 1.688 8 1.688C8.54 1.688 9.038 1.826 9.494 2.102C9.962 2.366 10.328 2.732 10.592 3.2C10.868 3.656 11.006 4.154 11.006 4.694C11.006 5.234 10.868 5.738 10.592 6.206C10.328 6.662 9.962 7.028 9.494 7.304C9.038 7.568 8.54 7.7 8 7.7Z" />
        </symbol>
        <symbol id="logout" xmlns="http://www.w3.org/2000/svg" viewBox="0 0 16 16">
            <path d="M8.45 8.456L6.722 10.166C6.578 10.31 6.506 10.49 6.506 10.706C6.506 10.91 6.578 11.084 6.722 11.228C6.866 11.372 7.04 11.444 7.244 11.444C7.46 11.444 7.64 11.372 7.784 11.228L10.79 8.24C10.85 8.168 10.898 8.084 10.934 7.988C11.018 7.796 11.018 7.604 10.934 7.412C10.898 7.316 10.85 7.232 10.79 7.16L7.784 4.172C7.688 4.052 7.574 3.968 7.442 3.92C7.31 3.872 7.172 3.866 7.028 3.902C6.884 3.938 6.758 4.01 6.65 4.118C6.554 4.214 6.488 4.334 6.452 4.478C6.416 4.622 6.422 4.76 6.47 4.892C6.518 5.024 6.602 5.138 6.722 5.234L8.45 6.944H1.25C1.046 6.944 0.866 7.022 0.71 7.178C0.566 7.322 0.494 7.496 0.494 7.7C0.494 7.904 0.566 8.084 0.71 8.24C0.866 8.384 1.046 8.456 1.25 8.456H8.45ZM8 0.194C7.052 0.194 6.14 0.362 5.264 0.698C4.4 1.034 3.62 1.52 2.924 2.156C2.228 2.78 1.67 3.518 1.25 4.37C1.178 4.55 1.178 4.73 1.25 4.91C1.322 5.09 1.442 5.228 1.61 5.324C1.79 5.408 1.97 5.426 2.15 5.378C2.342 5.318 2.492 5.204 2.6 5.036C3.032 4.172 3.632 3.458 4.4 2.894C5.168 2.318 6.02 1.952 6.956 1.796C7.904 1.628 8.84 1.694 9.764 1.994C10.7 2.282 11.504 2.762 12.176 3.434C12.86 4.106 13.352 4.898 13.652 5.81C13.964 6.71 14.042 7.64 13.886 8.6C13.742 9.56 13.388 10.43 12.824 11.21C12.272 11.978 11.57 12.584 10.718 13.028C9.878 13.472 8.972 13.694 8 13.694C6.86 13.694 5.804 13.394 4.832 12.794C3.872 12.194 3.14 11.384 2.636 10.364C2.528 10.196 2.378 10.088 2.186 10.04C2.006 9.98 1.826 9.998 1.646 10.094C1.478 10.178 1.358 10.31 1.286 10.49C1.214 10.67 1.214 10.85 1.286 11.03C1.826 12.122 2.588 13.028 3.572 13.748C4.52 14.444 5.576 14.894 6.74 15.098C7.94 15.302 9.122 15.218 10.286 14.846C11.45 14.486 12.458 13.874 13.31 13.01C14.15 12.182 14.756 11.204 15.128 10.076C15.512 8.924 15.608 7.748 15.416 6.548C15.236 5.348 14.786 4.256 14.066 3.272C13.37 2.312 12.494 1.562 11.438 1.022C10.37 0.47 9.224 0.194 8 0.194Z" />
        </symbol>
    </defs>
</svg>
